Coordinates
version=1
nRows=14
nColumns=40
inDegrees=yes

Units are S.I. units (second, meters, Newtons, ...)
Angles are in degrees.

endheader
time	pelvis_tilt	pelvis_list	pelvis_rotation	pelvis_tx	pelvis_ty	pelvis_tz	hip_flexion_r	hip_adduction_r	hip_rotation_r	knee_angle_r	knee_angle_r_beta	ankle_angle_r	subtalar_angle_r	mtp_angle_r	hip_flexion_l	hip_adduction_l	hip_rotation_l	knee_angle_l	knee_angle_l_beta	ankle_angle_l	subtalar_angle_l	mtp_angle_l	lumbar_extension	lumbar_bending	lumbar_rotation	arm_flex_r	arm_add_r	arm_rot_r	elbow_flex_r	pro_sup_r	wrist_flex_r	wrist_dev_r	arm_flex_l	arm_add_l	arm_rot_l	elbow_flex_l	pro_sup_l	wrist_flex_l	wrist_dev_l
     34.02750000	     -6.70701780	     -4.90687593	     -5.92920313	      1.04616573	      0.92458733	      0.48416767	     20.88977619	      1.82285608	     -4.63749810	     18.45910820	     18.45910820	      6.59918239	      3.25426552	     -3.13843457	      1.48994150	    -10.09300909	    -14.19014587	     17.59475549	     17.59475549	     18.86125299	     -7.51340096	      2.75825715	     -9.14663006	      6.17541336	      1.70239036	    -19.55265306	    -13.23806223	     -2.90705205	     33.16351314	     45.34307175	      0.00000000	      0.00000000	     38.20767041	    -22.51579014	    -16.65870073	     82.73402974	     48.76587714	      0.00000000	      0.00000000
     34.05057143	     -6.67842704	     -5.02113481	     -5.47168296	      1.04773425	      0.92493998	      0.49015239	     20.46229634	      2.22558192	     -4.94400496	     18.66082118	     18.66082118	      7.13994965	      2.96289161	     -3.30100961	      1.24475241	    -10.72177882	    -13.95915084	     17.83760845	     17.83760845	     18.64738986	     -7.22587455	      2.84119027	     -9.16471591	      6.05430852	      1.79461139	    -19.40422120	    -13.33916216	     -2.87477732	     33.22559194	     45.34233764	      0.00000000	      0.00000000	     36.59462936	    -21.84383045	    -16.38327402	     82.13000921	     48.72324706	      0.00000000	      0.00000000
     34.07364286	     -6.67445747	     -5.22586725	     -5.02004402	      1.04932424	      0.92516906	      0.49614591	     19.99338974	      2.76276025	     -5.19031028	     18.73817776	     18.73817776	      7.61689653	      2.50043761	     -3.32230840	      1.33018246	    -11.60217642	    -13.87486303	     18.70021235	     18.70021235	     18.59541361	     -6.68239582	      2.70007387	     -9.05551565	      6.08433709	      1.63775438	    -19.03336119	    -13.58295888	     -2.80492473	     33.36806630	     45.34175535	      0.00000000	      0.00000000	     34.51869849	    -21.45226013	    -16.03771323	     80.94692841	     48.65869748	      0.00000000	      0.00000000
     34.09671429	     -6.43210701	     -5.12606944	     -4.57232515	      1.05097339	      0.92575252	      0.50182386	     19.34820784	      2.93659882	     -5.35402501	     18.92339717	     18.92339717	      8.20088753	      2.23715723	     -3.48546058	      1.18389192	    -12.04975606	    -13.54681204	     19.48462618	     19.48462618	     18.20228913	     -6.56579838	      2.64500498	     -9.29284471	      5.70425706	      1.79677857	    -18.57536774	    -13.62447415	     -2.78636965	     33.50551077	     45.33999873	      0.00000000	      0.00000000	     32.50062467	    -20.49009550	    -15.64862341	     80.11585739	     48.60269187	      0.00000000	      0.00000000
     34.11978571	     -6.40550591	     -5.42745912	     -4.09086063	      1.05234080	      0.92568565	      0.50752805	     18.94779361	      3.56630942	     -5.59334150	     19.13665215	     19.13665215	      8.66580131	      1.74077324	     -3.51326686	      2.02540875	    -13.20200125	    -13.04520089	     21.70984088	     21.70984088	     17.91031641	     -6.71308100	      1.84584476	     -9.16870877	      5.90289802	      1.47824105	    -17.75650982	    -14.06566061	     -2.78099940	     33.61068707	     45.34766410	      0.00000000	      0.00000000	     29.85502109	    -20.15602094	    -15.18853741	     78.10371788	     48.51396137	      0.00000000	      0.00000000
     34.14285714	     -6.26299432	     -5.46551862	     -3.55882262	      1.05369218	      0.92565267	      0.51296328	     18.49376353	      3.90931917	     -5.69025958	     19.43660610	     19.43660610	      9.28929162	      1.11340656	     -3.53286755	      3.00541750	    -14.07390105	    -12.35806413	     24.28121379	     24.28121379	     17.26953397	     -7.07560062	      0.56381361	     -9.11834205	      5.73330752	      1.10723325	    -16.55267772	    -14.28639468	     -2.67193703	     33.63726511	     45.35620897	      0.00000000	      0.00000000	     27.28654940	    -19.57513721	    -14.56801580	     75.78631027	     48.40931521	      0.00000000	      0.00000000
     34.16592857	     -5.83439219	     -5.43468496	     -3.09471806	      1.05504776	      0.92591265	      0.51817617	     17.80595770	      4.15417785	     -5.76313848	     19.85469391	     19.85469391	      9.89626314	      0.62286446	     -3.61743815	      3.97782396	    -14.85267949	    -11.50174564	     27.37398038	     27.37398038	     16.21473005	     -7.87373752	     -0.67862933	     -9.49482841	      5.55265702	      1.10208094	    -15.21505335	    -14.55279021	     -2.61434831	     33.69856489	     45.36549670	      0.00000000	      0.00000000	     24.56668558	    -18.60851121	    -13.91080098	     73.55955509	     48.30451126	      0.00000000	      0.00000000
     34.18900000	     -5.69654589	     -5.41630087	     -2.49151571	      1.05595232	      0.92539431	      0.52315513	     17.61566078	      4.45105862	     -5.67250663	     20.56167831	     20.56167831	     10.77922201	     -0.51623628	     -2.88535724	      5.57245515	    -15.58072189	    -10.05395549	     30.47516709	     30.47516709	     11.71640472	    -10.93824527	     -9.02198154	     -9.29188680	      5.39924309	      1.01746411	    -12.74508520	    -14.68271406	     -1.44973084	     31.02148498	     45.46485504	      0.00000000	      0.00000000	     23.06048994	    -17.80595893	    -12.07285990	     67.33296083	     48.05315660	      0.00000000	      0.00000000
     34.21207143	     -5.28208985	     -5.49659354	     -1.86464168	      1.05667843	      0.92484743	      0.52781827	     17.14365014	      4.75271171	     -5.95411642	     21.24997556	     21.24997556	     11.43890855	     -1.09781664	     -3.11033698	      7.66574407	    -16.52041119	     -8.51639899	     35.18509950	     35.18509950	      9.99161194	    -12.36719269	    -10.30823424	     -9.70293274	      5.35060071	      0.81989146	    -10.88282779	    -14.96717855	     -1.58497552	     31.62108317	     45.46953352	      0.00000000	      0.00000000	     20.13510983	    -16.80236375	    -11.42686733	     65.06474229	     47.94776687	      0.00000000	      0.00000000
     34.23514286	     -4.95757923	     -5.49187687	     -1.18519353	      1.05712758	      0.92382465	      0.53217144	     16.92967928	      4.98064902	     -6.05384183	     22.18431902	     22.18431902	     12.16847401	     -2.09497792	     -3.29963133	     10.19723589	    -17.20902364	     -6.60664024	     40.19015057	     40.19015057	      7.60095285	    -14.23446730	    -11.58921778	     -9.92013300	      5.24375114	      0.38760189	     -8.56784278	    -15.15747984	     -1.64802171	     32.04600124	     45.48091957	      0.00000000	      0.00000000	     17.25559874	    -15.87305788	    -10.61769593	     61.71134348	     47.81430426	      0.00000000	      0.00000000
     34.25821429	     -4.57203702	     -5.34137769	     -0.51797619	      1.05736459	      0.92270322	      0.53622540	     16.77313823	      5.10184800	     -5.87415056	     23.31527281	     23.31527281	     13.06257243	     -3.47950893	     -2.82937124	     12.71456583	    -17.53134757	     -4.61261392	     44.96263013	     44.96263013	      3.93297018	    -16.87407853	    -14.29307608	     -9.99056664	      5.01600433	      0.46434161	     -5.38594446	    -15.12459684	     -1.15903011	     29.94995111	     45.59638594	      0.00000000	      0.00000000	     16.26482494	    -14.69916662	     -8.63236255	     53.72756536	     47.54555762	      0.00000000	      0.00000000
     34.28128571	     -4.14400836	     -5.29487033	      0.22346360	      1.05727428	      0.92122030	      0.53991600	     16.63867526	      5.28739259	     -5.88064308	     24.51444716	     24.51444716	     13.91119703	     -4.76194449	     -2.65189577	     15.64153268	    -17.80081173	     -2.46574475	     50.31128234	     50.31128234	      2.34110003	    -17.71932614	    -11.69213582	    -10.31433875	      4.89959400	      0.18265337	     -2.39364307	    -15.18083648	     -1.28069816	     29.72539733	     45.66526833	      0.00000000	      0.00000000	     14.20477462	    -13.62279021	     -7.14907319	     48.52163593	     47.34151978	      0.00000000	      0.00000000
     34.30435714	     -3.70772073	     -5.28559313	      0.95735702	      1.05700751	      0.91954171	      0.54323053	     16.53022094	      5.49060273	     -5.94846071	     25.74733236	     25.74733236	     14.74756387	     -5.92915155	     -2.42750995	     18.64347190	    -17.77717636	     -0.16518748	     55.47112069	     55.47112069	      1.71279780	    -18.06072393	     -6.40079062	    -10.60938531	      4.84570082	      0.36310701	      0.85321402	    -15.24085410	     -1.38971932	     29.32501297	     45.74429306	      0.00000000	      0.00000000	     12.41654014	    -12.38183302	     -5.56554653	     43.02836372	     47.12061087	      0.00000000	      0.00000000
     34.32742857	     -3.29111074	     -5.21381733	      1.70844746	      1.05649004	      0.91777724	      0.54616127	     16.48076521	      5.60820267	     -6.03954393	     27.01957992	     27.01957992	     15.59247659	     -7.07002155	     -2.17152763	     21.59497900	    -17.46626928	      1.95312926	     60.04951154	     60.04951154	      1.64999532	    -18.24785547	     -0.03201974	    -10.92591709	      4.72788387	      0.43754144	      4.22398201	    -15.29611185	     -1.63608512	     29.24674254	     45.82040351	      0.00000000	      0.00000000	     10.48863612	    -11.20471105	     -3.97568324	     38.01789742	     46.88598076	      0.00000000	      0.00000000
